<?xml version="1.0" standalone="no"?>
<!DOCTYPE svg PUBLIC "-//W3C//DTD SVG 20010904//EN"
 "http://www.w3.org/TR/2001/REC-SVG-20010904/DTD/svg10.dtd">
<svg version="1.0" xmlns="http://www.w3.org/2000/svg"
 width="700.000000pt" height="700.000000pt" viewBox="0 0 700.000000 700.000000"
 preserveAspectRatio="xMidYMid meet">
<metadata>
Created by potrace 1.14, written by Peter Selinger 2001-2017
</metadata>
<g transform="translate(0.000000,700.000000) scale(0.100000,-0.100000)"
fill="#000000" stroke="none">
<path d="M3963 5589 c-601 -30 -1384 -226 -1631 -408 -140 -103 -261 -381
-328 -750 -14 -79 -15 -94 -3 -103 12 -8 11 -9 -1 -5 -8 2 -53 14 -101 26 -78
20 -91 20 -156 8 -70 -13 -72 -13 -77 7 -17 63 0 69 108 36 78 -25 216 -25
216 -1 0 11 -15 13 -78 8 -62 -5 -91 -2 -141 13 -35 11 -73 20 -86 20 -19 0
-25 7 -30 33 l-7 34 -256 -5 c-141 -2 -269 -7 -283 -10 -18 -5 -153 -152 -448
-491 -232 -266 -420 -488 -419 -492 5 -13 591 -470 599 -467 3 2 118 127 255
278 136 151 329 364 428 473 l179 199 -16 156 c-9 87 -13 160 -9 164 4 4 42
13 84 19 70 11 81 11 148 -11 l72 -23 -6 -66 c-16 -171 -10 -157 -81 -192 -72
-35 -144 -101 -169 -154 -22 -45 -80 -269 -118 -455 -51 -247 -51 -569 0 -683
l17 -39 28 22 27 21 0 -48 c0 -114 56 -302 110 -371 46 -58 61 -62 237 -62
170 0 296 13 350 35 25 11 34 22 43 57 21 85 27 87 34 13 4 -38 17 -89 28
-113 l20 -42 -31 -35 c-17 -20 -28 -41 -25 -50 17 -42 316 -123 498 -133 206
-13 410 15 526 71 59 29 63 56 16 122 -20 27 -34 50 -32 52 2 2 59 -4 127 -14
176 -25 759 -25 1009 0 96 10 183 20 193 23 12 4 29 -4 49 -23 l30 -28 131 2
c387 5 797 86 797 158 0 8 -18 27 -40 41 -22 15 -39 31 -37 37 1 5 36 22 77
37 75 27 232 101 227 106 -2 2 -63 -14 -137 -35 -240 -69 -495 -120 -709 -141
-132 -13 -409 -13 -526 0 -316 35 -630 148 -892 318 -50 33 -100 62 -110 65
-17 4 -17 5 1 6 11 0 60 -25 110 -57 252 -162 478 -251 772 -303 111 -20 162
-23 374 -23 344 0 576 35 969 145 175 50 187 55 247 103 167 135 266 335 309
623 39 261 38 887 -1 1121 -58 342 -222 514 -516 538 -107 8 -229 -7 -451 -56
-98 -22 -193 -40 -210 -40 -29 0 -38 8 -88 83 -31 45 -93 147 -139 227 -109
190 -151 251 -199 289 -141 112 -439 161 -858 140z m640 -153 c96 -19 140 -42
204 -108 92 -95 293 -432 293 -491 0 -73 -108 -107 -555 -172 -254 -37 -435
-73 -435 -86 0 -5 16 -30 36 -56 85 -111 125 -232 129 -393 l3 -115 -7 110
c-14 196 -75 340 -196 460 -192 192 -429 225 -735 101 -245 -99 -432 -247
-527 -418 -19 -35 -32 -56 -30 -47 4 13 -21 9 -146 -21 -259 -64 -429 -85
-476 -60 -28 15 -37 92 -15 130 15 24 16 33 6 52 -16 28 10 192 63 401 76 299
115 356 284 407 60 19 89 22 184 18 141 -5 198 -26 222 -85 31 -71 144 -418
151 -460 4 -24 9 -43 11 -43 10 0 113 65 113 71 0 4 -16 49 -35 100 -114 297
-98 442 54 508 68 29 297 86 521 131 165 32 269 49 475 73 85 11 340 6 408 -7z
m1256 -562 c32 -4 40 -9 30 -16 -10 -7 -8 -8 8 -3 16 4 47 -7 103 -35 132 -69
227 -188 265 -331 19 -71 19 -210 0 -284 -43 -162 -162 -294 -314 -346 -65
-23 -183 -27 -251 -9 -103 27 -240 119 -291 193 -13 18 0 8 30 -23 44 -46 47
-47 17 -10 -102 125 -140 303 -101 469 52 219 243 380 454 381 30 0 52 3 48 6
-15 15 -174 4 -232 -16 -33 -11 -55 -16 -50 -11 15 13 105 40 150 44 41 4 59
3 134 -9z m-379 -41 c-1 -5 -19 -28 -42 -53 -26 -28 -33 -34 -20 -14 12 17 28
37 37 44 13 11 13 15 3 21 -10 7 -9 9 5 9 9 0 17 -3 17 -7z m-87 -10 c-7 -2
-21 -2 -30 0 -10 3 -4 5 12 5 17 0 24 -2 18 -5z m147 -11 c-14 -9 -52 -41 -85
-72 -49 -45 -53 -47 -20 -11 39 42 112 102 124 100 3 0 -5 -8 -19 -17z m-213
2 c-3 -3 -12 -4 -19 -1 -8 3 -5 6 6 6 11 1 17 -2 13 -5z m31 -159 c-12 -24
-23 -43 -26 -41 -4 5 36 86 43 86 3 0 -5 -20 -17 -45z m-1579 10 c142 -34 274
-138 342 -270 46 -88 57 -122 68 -212 30 -242 -88 -482 -288 -587 -87 -45
-135 -57 -234 -57 -109 0 -194 27 -283 90 -156 109 -238 278 -237 486 0 85 5
114 30 186 51 147 136 250 261 317 110 59 224 74 341 47z m1584 -50 c-9 -19
-18 -33 -21 -31 -4 5 26 66 33 66 3 0 -3 -16 -12 -35z m-44 -125 c0 -9 -4 -8
-9 5 -5 11 -9 27 -9 35 0 9 4 8 9 -5 5 -11 9 -27 9 -35z m-11 -55 c0 -16 -2
-15 -8 5 -4 14 -8 34 -8 45 0 16 2 15 8 -5 4 -14 8 -34 8 -45z m-2212 -28
c-27 -66 -49 -174 -57 -282 l-8 -110 4 120 c3 85 10 140 25 190 12 39 23 79
25 90 4 26 4 25 15 25 6 0 5 -13 -4 -33z m2191 -104 c-2 -27 -3 -5 -3 47 0 52
1 74 3 48 2 -27 2 -69 0 -95z m-3747 102 c0 -3 -7 -17 -16 -30 -23 -36 -15
-69 19 -73 33 -4 34 -16 5 -36 -34 -24 -66 -19 -100 14 -25 26 -29 36 -24 63
8 41 39 67 82 67 19 0 34 -2 34 -5z m40 -56 c0 -10 -7 -19 -15 -19 -15 0 -21
31 -9 43 11 10 24 -3 24 -24z m3727 -51 c-2 -13 -4 -5 -4 17 -1 22 1 32 4 23
2 -10 2 -28 0 -40z m1 -133 c0 -16 -2 -15 -8 5 -4 14 -8 36 -8 50 0 22 1 22 8
-5 4 -16 8 -39 8 -50z m-2531 13 c-3 -8 -6 -5 -6 6 -1 11 2 17 5 13 3 -3 4
-12 1 -19z m-10 -50 c-3 -7 -5 -2 -5 12 0 14 2 19 5 13 2 -7 2 -19 0 -25z
m2579 -95 c-5 -5 -36 86 -35 101 0 6 9 -13 20 -43 10 -30 17 -56 15 -58z
m-4101 62 c24 -14 53 -37 64 -51 45 -57 50 -153 13 -216 -20 -34 -21 -34 -66
-7 -34 20 -34 20 -20 54 22 54 18 83 -20 121 -48 48 -101 48 -154 0 -21 -19
-47 -51 -58 -72 l-19 -36 57 -52 57 -51 -32 -36 -32 -37 -50 43 -49 43 -35
-40 c-19 -22 -51 -47 -70 -55 l-35 -15 27 -20 c15 -11 45 -46 68 -78 29 -41
55 -66 85 -81 24 -11 44 -23 44 -25 0 -3 -9 -23 -20 -44 l-20 -40 -38 15 c-59
25 -78 41 -137 114 -56 71 -116 120 -180 146 l-34 15 15 42 14 43 78 0 c82 0
107 11 146 63 18 23 18 24 -14 57 l-32 33 30 33 c29 32 30 33 55 16 32 -21 37
-21 37 -1 0 24 113 131 151 143 50 15 125 5 174 -24z m3663 -29 c71 -36 133
-69 136 -75 7 -11 -75 -71 -98 -71 -9 0 -49 17 -90 37 -84 41 -96 39 -117 -24
-10 -32 -9 -38 9 -52 20 -16 19 -17 -47 -63 l-69 -47 -27 62 c-15 34 -29 68
-32 75 -3 7 4 12 18 12 20 0 28 11 49 67 35 94 73 143 109 143 16 0 87 -29
159 -64z m-2141 -48 c-3 -7 -5 -2 -5 12 0 14 2 19 5 13 2 -7 2 -19 0 -25z m12
-42 c-9 -8 -10 -7 -5 7 3 10 7 26 7 35 1 9 4 6 6 -7 3 -13 -1 -28 -8 -35z
m-236 37 c-13 -2 -35 -2 -50 0 -16 2 -5 4 22 4 28 0 40 -2 28 -4z m84 1 c-3
-3 -12 -4 -19 -1 -8 3 -5 6 6 6 11 1 17 -2 13 -5z m-250 -10 c-3 -3 -12 -4
-19 -1 -8 3 -5 6 6 6 11 1 17 -2 13 -5z m740 -207 c45 -86 159 -205 251 -261
61 -38 84 -58 40 -35 -111 57 -245 190 -301 297 -37 70 -67 161 -66 196 0 12
9 -12 19 -52 11 -40 36 -105 57 -145z m1133 110 c-50 -163 -145 -292 -275
-372 -40 -25 -22 -8 48 44 104 79 190 216 225 360 9 39 18 64 20 55 2 -8 -6
-47 -18 -87z m944 23 c4 -5 -2 -11 -13 -15 -20 -6 -18 -10 29 -62 74 -81 78
-116 18 -153 -36 -22 -203 -80 -229 -80 -11 0 -21 15 -29 45 -7 25 -11 47 -9
49 2 2 37 15 77 30 39 15 72 31 72 35 0 4 -13 20 -29 35 -25 24 -32 26 -51 16
-34 -18 -38 -9 -23 57 l14 61 82 -5 c45 -3 86 -9 91 -13z m-510 -178 c3 -4 0
-28 -5 -52 -14 -61 -5 -65 84 -44 l76 17 -15 30 c-9 16 -13 31 -11 34 4 3 123
-51 135 -62 5 -5 -50 -155 -59 -160 -4 -3 -10 8 -14 24 l-6 30 -42 -16 c-25
-10 -77 -16 -130 -17 -88 -1 -89 -1 -118 32 -26 29 -29 40 -29 96 0 93 2 96
70 96 33 0 61 -4 64 -8z m1476 -169 c0 -151 -116 -286 -345 -400 -165 -83
-431 -163 -660 -198 -146 -23 -520 -32 -666 -15 -203 22 -378 78 -469 150 -36
29 -87 96 -79 105 2 2 67 -7 144 -20 608 -103 1256 -16 1725 231 110 58 287
172 309 198 29 35 41 19 41 -51z m-4343 -55 c-3 -7 -5 -2 -5 12 0 14 2 19 5
13 2 -7 2 -19 0 -25z m80 -111 c55 -32 176 -46 473 -57 324 -12 439 -26 577
-72 68 -22 98 -28 101 -20 2 7 8 10 13 6 5 -3 9 -2 8 3 -4 23 4 35 34 53 43
27 69 25 152 -10 l69 -30 45 43 c30 28 24 19 -18 -28 -35 -38 -84 -98 -109
-132 l-46 -63 -70 39 c-67 37 -71 41 -71 74 0 22 -4 33 -12 30 -6 -2 -42 7
-80 20 -142 51 -235 63 -623 77 -281 11 -408 27 -449 58 -29 21 -71 79 -71 96
0 6 10 -7 23 -28 12 -22 37 -48 54 -59z m1623 39 c-5 -5 -21 -4 -40 4 -46 19
-44 27 5 16 27 -6 41 -14 35 -20z m297 8 c-3 -3 -12 -4 -19 -1 -8 3 -5 6 6 6
11 1 17 -2 13 -5z m-225 -11 c-7 -2 11 -16 39 -30 55 -28 110 -98 108 -137 -1
-18 -2 -17 -9 4 -4 14 -8 19 -9 12 -1 -8 -46 -62 -102 -120 -104 -110 -215
-251 -263 -335 -16 -26 -38 -54 -49 -62 -34 -24 -99 -19 -138 10 -19 14 -42
28 -52 31 -34 12 -31 50 12 140 55 115 129 220 230 326 46 48 80 88 76 88 -4
0 -2 6 5 14 6 8 17 13 25 10 7 -3 16 0 21 7 5 8 3 10 -6 4 -9 -5 -11 -4 -6 4
4 6 12 8 18 5 6 -4 16 0 22 8 14 18 34 26 66 26 14 0 19 -2 12 -5z m175 1 c-3
-3 -12 -4 -19 -1 -8 3 -5 6 6 6 11 1 17 -2 13 -5z m-95 -257 l-62 -63 74 -48
c48 -31 81 -61 95 -86 23 -42 27 -65 9 -54 -8 5 -9 0 -5 -15 3 -13 3 -20 0
-17 -3 3 -25 -12 -49 -34 -24 -22 -54 -42 -69 -46 -32 -8 -113 31 -174 83
l-43 38 41 53 c46 58 230 252 239 252 4 0 -22 -28 -56 -63z m605 37 c-3 -3
-12 -4 -19 -1 -8 3 -5 6 6 6 11 1 17 -2 13 -5z m116 -11 c-7 -2 -21 -2 -30 0
-10 3 -4 5 12 5 17 0 24 -2 18 -5z m510 0 c-7 -2 -19 -2 -25 0 -7 3 -2 5 12 5
14 0 19 -2 13 -5z m-210 -10 c-29 -2 -78 -2 -110 0 -32 2 -8 3 52 3 61 0 87
-1 58 -3z m-1593 -79 c0 -2 -9 0 -20 6 -11 6 -20 13 -20 16 0 2 9 0 20 -6 11
-6 20 -13 20 -16z m-1180 -126 c73 -79 73 -378 -1 -471 -39 -51 -82 -23 -116
76 -23 69 -24 240 0 317 18 62 48 100 77 100 11 0 29 -10 40 -22z m1530 -93
c12 -17 12 -18 0 -7 -12 10 -18 7 -38 -15 l-23 -28 23 37 c12 20 23 36 23 35
0 -1 7 -11 15 -22z m-82 -96 c-36 -65 -71 -89 -126 -88 l-47 2 45 6 c63 10 85
24 116 76 33 56 43 60 12 4z m-585 -57 c99 -103 111 -476 21 -629 -40 -69 -92
-72 -136 -8 -80 116 -90 434 -18 589 38 80 86 97 133 48z m397 -12 c8 -5 11
-10 5 -10 -5 0 -21 10 -35 21 -24 20 -5 13 30 -11z"/>
<path d="M5600 4688 c-137 -39 -207 -193 -146 -323 40 -88 114 -135 211 -135
31 0 70 6 88 13 103 44 169 171 141 274 l-6 23 -20 -25 c-25 -32 -76 -41 -115
-21 -58 29 -67 115 -17 155 13 10 24 21 24 24 0 9 -71 27 -100 26 -14 0 -41
-5 -60 -11z"/>
<path d="M3503 4476 c-62 -29 -106 -85 -123 -156 -40 -167 113 -320 280 -280
108 26 180 118 180 231 0 32 -3 60 -8 63 -4 2 -18 -6 -31 -20 -16 -16 -34 -24
-58 -24 -45 0 -69 14 -89 51 -20 40 -11 82 27 114 l30 25 -26 10 c-47 18 -126
12 -182 -14z"/>
</g>
</svg>
